<?xml version="1.0" standalone="no"?>
<!DOCTYPE svg PUBLIC "-//W3C//DTD SVG 20010904//EN"
 "http://www.w3.org/TR/2001/REC-SVG-20010904/DTD/svg10.dtd">
<svg version="1.0" xmlns="http://www.w3.org/2000/svg"
 width="1438.000000pt" height="1438.000000pt" viewBox="0 0 1438.000000 1438.000000"
 preserveAspectRatio="xMidYMid meet">

<g transform="translate(0.000000,1438.000000) scale(0.100000,-0.100000)"
fill="#000000" stroke="none">
<path d="M6830 14370 c-1366 -75 -2633 -506 -3736 -1272 -799 -554 -1490
-1282 -2009 -2113 -840 -1345 -1207 -2938 -1044 -4535 138 -1357 667 -2658
1513 -3720 251 -316 604 -689 881 -931 954 -836 2062 -1390 3295 -1648 825
-172 1713 -195 2560 -65 1017 156 1994 533 2850 1099 1229 813 2172 1964 2720
3320 274 681 438 1388 502 2170 27 333 14 946 -28 1320 -164 1463 -771 2835
-1745 3940 -589 670 -1295 1223 -2089 1638 -796 416 -1735 693 -2615 771 -93
8 -195 17 -225 20 -110 10 -679 14 -830 6z m1537 -3467 c-2 -10 -169 -297
-369 -638 l-365 -620 -697 -3 c-383 -1 -696 1 -696 5 0 3 149 291 331 640
l332 633 734 0 c696 0 735 -1 730 -17z m2193 11 c0 -3 -89 -157 -198 -342
-109 -185 -276 -471 -372 -634 l-175 -298 -688 0 -688 0 17 33 c58 113 629
1206 641 1225 l13 22 725 0 c399 0 725 -2 725 -6z m1438 -636 l2 -638 -679 0
-679 0 285 618 c157 339 289 627 294 640 l9 22 382 -2 383 -3 3 -637z m-5848
616 c0 -4 -154 -287 -342 -630 l-342 -624 -1578 0 -1578 0 0 630 0 630 1920 0
c1056 0 1920 -3 1920 -6z m5908 -4496 l-3 -2393 -26 -72 c-85 -231 -264 -389
-513 -453 -79 -20 -96 -20 -4309 -20 -3133 0 -4247 3 -4296 11 -142 25 -280
99 -391 209 -78 78 -129 160 -166 270 -18 53 -19 133 -18 2390 0 1284 4 2361
8 2393 l7 57 4855 0 4854 0 -2 -2392z"/>
<path d="M6257 7210 c-112 -20 -209 -94 -257 -197 -50 -106 -51 -132 -48 -917
l3 -731 23 -60 c30 -80 68 -132 126 -176 93 -71 220 -87 370 -49 49 12 274
110 624 271 301 139 669 308 817 376 292 134 343 163 405 226 59 60 83 111 83
177 0 69 -20 116 -74 175 -61 67 -130 104 -544 293 -203 93 -571 262 -816 375
-246 113 -470 212 -498 221 -68 20 -155 27 -214 16z"/>
</g>
</svg>
